# Blender 3.6.2
# www.blender.org
mtllib closed_room.mtl
o Plane
v -40.000000 0.000000 40.000000
v 40.000000 0.000000 40.000000
v -40.000000 0.000000 -40.000000
v 40.000000 0.000000 -40.000000
v 40.000000 40.000000 40.000000
v 40.000000 40.000000 -40.000000
v -40.000000 40.000000 40.000000
v 40.000000 40.000000 40.000000
v -40.000000 40.000000 -40.000000
v 40.000000 40.000000 -40.000000
vn -0.0000 1.0000 -0.0000
vn -1.0000 -0.0000 -0.0000
vn -0.0000 -0.0000 1.0000
vn -0.0000 -0.0000 -1.0000
vn 1.0000 -0.0000 -0.0000
vt 0.000000 0.000000
vt 1.000000 0.000000
vt 1.000000 1.000000
vt 0.000000 1.000000
s 0
f 1/1/1 2/2/1 4/3/1 3/4/1
f 4/3/2 2/2/2 5/2/2 6/3/2
f 3/4/3 4/3/3 10/3/3 9/4/3
f 2/2/4 1/1/4 7/1/4 8/2/4
f 1/1/5 3/4/5 9/4/5 7/1/5
